<svg width="474" height="381" viewBox="0 0 474 381" fill="none" xmlns="http://www.w3.org/2000/svg">
<path fill-rule="evenodd" clip-rule="evenodd" d="M319.853 38.7551C287.08 34.2097 248.243 41.3996 223.237 64.0805C195.78 88.9747 173.872 103.823 143.613 111.708C114.72 119.244 60.4638 120.346 31.5005 155.85C-4.56579 200.058 19.2913 256.973 70.6842 294.387C128.113 336.202 237.265 376.082 335.649 338.721C431.843 302.188 454.694 214.764 444.091 162.223C429.392 89.3724 364.698 44.9688 319.853 38.7551Z" fill="black" fill-opacity="0.04"/>
<rect x="80.5164" y="65.7913" width="327.784" height="250.447" rx="5" fill="white"/>
<path d="M406.801 107.23V311.238C406.801 313.171 405.234 314.738 403.301 314.738H85.5164C83.5834 314.738 82.0164 313.171 82.0164 311.238V107.23H406.801Z" fill="#EEEEEE" stroke="white" stroke-width="3"/>
<path d="M80.5164 256.311V70.7913C80.5164 68.0298 82.7549 65.7913 85.5164 65.7913H403.301C406.062 65.7913 408.301 68.0298 408.301 70.7913V135.961M80.5164 266.608V268.37V278.667V311.238C80.5164 313.999 82.7549 316.238 85.5164 316.238H403.301C406.062 316.238 408.301 313.999 408.301 311.238V180.843V170.545V163.957M408.301 146.496V152.525V154.142" stroke="#333333" stroke-width="1.5"/>
<path d="M80.5164 105.73H408.301" stroke="#333333" stroke-width="1.5"/>
<ellipse cx="99.2608" cy="86.0544" rx="3.53814" ry="3.53289" fill="#333333"/>
<ellipse cx="118.131" cy="86.0543" rx="3.53814" ry="3.53289" fill="#333333"/>
<ellipse cx="137.001" cy="86.0543" rx="3.53814" ry="3.53289" fill="#333333"/>
<path d="M241.844 164.179C243.156 162.158 246.063 162.095 247.475 163.989L247.608 164.179L294.718 236.678C296.203 238.964 294.562 241.987 291.836 241.987H197.616C194.975 241.987 193.352 239.15 194.603 236.894L194.734 236.678L241.844 164.179Z" fill="white" stroke="white" stroke-width="3"/>
<path fill-rule="evenodd" clip-rule="evenodd" d="M240.586 163.361C242.533 160.365 246.919 160.365 248.865 163.361L295.975 235.861C298.11 239.145 295.753 243.487 291.836 243.487H197.616C193.699 243.487 191.342 239.145 193.476 235.861L240.586 163.361Z" stroke="#333333" stroke-width="1.5"/>
<path d="M248.848 192.001H240.605L241.635 214.655H247.818L248.848 192.001Z" fill="#333333"/>
<path d="M244.726 218.774C247.003 218.774 248.848 220.618 248.848 222.893C248.848 225.168 247.003 227.012 244.726 227.012C242.45 227.012 240.605 225.168 240.605 222.893C240.605 220.618 242.45 218.774 244.726 218.774Z" fill="#333333"/>
</svg>
