<svg width="184" height="148" viewBox="0 0 184 148" fill="none" xmlns="http://www.w3.org/2000/svg">
<path fill-rule="evenodd" clip-rule="evenodd" d="M105.525 27.2982C96.2449 28.9811 86.3664 34.3838 81.6128 42.7546C76.3923 51.9433 71.7803 57.9158 64.2871 62.744C57.1329 67.3562 42.5369 72.4801 37.8527 84.6783C32.0194 99.8669 43.546 113.17 60.7945 118.739C80.0693 124.963 113.18 126.064 136.5 107.188C159.301 88.7318 157.709 63.0062 150.161 49.7101C139.696 31.2739 118.223 24.9937 105.525 27.2982" fill="black" fill-opacity="0.04"/>
<path fill-rule="evenodd" clip-rule="evenodd" d="M119.49 97.931V34.0204C119.49 30.9948 116.992 28.541 113.913 28.541H72.983C69.9033 28.541 67.4055 30.9948 67.4055 34.0204V67.5485V99.7561V116.442C67.4055 120.018 70.3558 122.916 73.9953 122.916H112.9C116.54 122.916 119.49 120.018 119.49 116.442V107.308V97.931Z" fill="white"/>
<path d="M117.926 40.5153V109.703H68.8613V40.5153H117.926Z" fill="#EEEEEE" stroke="white" stroke-width="3"/>
<path fill-rule="evenodd" clip-rule="evenodd" d="M112.609 119.888H73.953C70.3369 119.888 67.4055 117.075 67.4055 113.605V116.633C67.4055 120.103 70.3369 122.916 73.953 122.916H112.609C116.225 122.916 119.156 120.103 119.156 116.633V113.605C119.156 117.075 116.225 119.888 112.609 119.888" fill="#EEEEEE" style="mix-blend-mode:multiply"/>
<path d="M67.3613 46.9785V34.0204C67.3613 30.9948 69.8591 28.541 72.9388 28.541H113.869C116.948 28.541 119.446 30.9948 119.446 34.0204V89.5643M67.3613 50.916V67.5485V99.7561V116.442C67.3613 120.018 70.3116 122.916 73.9511 122.916H112.856C116.496 122.916 119.446 120.018 119.446 116.442V107.308V100.596M119.446 93.4393V96.6893" stroke="#333333" stroke-width="1.5"/>
<path d="M67.4055 111.203H119.156" stroke="#333333" stroke-width="1.5"/>
<path d="M119.156 38.9156H67.4055" stroke="#333333" stroke-width="1.5"/>
<path d="M90.568 34.2303H98.2449" stroke="#333333" stroke-width="1.5"/>
<path d="M87.4913 34.2303H88.8771" stroke="#333333" stroke-width="1.5"/>
<path d="M90.1091 116.557H96.7866" stroke="#333333" stroke-width="1.5"/>
<path d="M90.1165 59.1763C91.4292 57.1547 94.3368 57.0916 95.7493 58.9868L95.8811 59.1763L108.608 78.7739C110.092 81.0604 108.451 84.0825 105.725 84.0825H80.2727C77.5467 84.0823 75.9062 81.0603 77.3909 78.7739L90.1165 59.1763Z" fill="white" stroke="white" stroke-width="3"/>
<path fill-rule="evenodd" clip-rule="evenodd" d="M88.8586 58.3593C90.8051 55.3617 95.1931 55.3617 97.1396 58.3593L109.866 77.9574C111.998 81.2418 109.641 85.5829 105.725 85.5829H80.273C76.357 85.5829 73.9998 81.2418 76.1325 77.9574L88.8586 58.3593Z" stroke="#333333" stroke-width="1.5"/>
<path d="M94.5994 65.583H91.3994L91.7994 74.383H94.1994L94.5994 65.583Z" fill="#333333"/>
<path d="M92.9994 75.983C93.8831 75.983 94.5994 76.6994 94.5994 77.583C94.5994 78.4667 93.8831 79.183 92.9994 79.183C92.1158 79.183 91.3994 78.4667 91.3994 77.583C91.3994 76.6994 92.1158 75.983 92.9994 75.983Z" fill="#333333"/>
</svg>
