<svg width="23" height="13" viewBox="0 0 23 13" fill="none" xmlns="http://www.w3.org/2000/svg">
<path fill-rule="evenodd" clip-rule="evenodd" d="M10.526 2.2209V0.386169H5.49786C2.49803 0.386169 0.26416 3.11697 0.26416 6.22483C0.26416 7.75003 0.802158 9.1844 1.70466 10.2498C2.64118 11.3553 3.9702 12.0635 5.49786 12.0635L10.526 12.0635V10.2288H5.49786C4.64247 10.2288 3.81909 9.83641 3.19701 9.16767C2.53342 8.4543 2.09889 7.42644 2.09889 6.22483C2.09889 5.02323 2.53342 3.99537 3.19701 3.282C3.81909 2.61326 4.64247 2.2209 5.49786 2.2209H10.526ZM20.9998 2.19989C20.0632 1.09436 18.7342 0.386169 17.2066 0.386169H12.1784V2.2209H17.2066C18.0619 2.2209 18.8853 2.61326 19.5074 3.282C20.171 3.99537 20.6055 5.02323 20.6055 6.22483C20.6055 7.42644 20.171 8.4543 19.5074 9.16767C18.8853 9.83641 18.0619 10.2288 17.2066 10.2288H12.1784V12.0635L17.2066 12.0635C17.2212 12.0635 17.2357 12.0634 17.2503 12.0633C20.2128 12.0369 22.4403 9.33504 22.4403 6.22483C22.4403 4.69964 21.9023 3.26526 20.9998 2.19989ZM5.34984 5.47118V7.30591H17.3552V5.47118H5.34984Z" fill="black" fill-opacity="0.9"/>
</svg>
