<svg width="324" height="82" viewBox="0 0 324 82" fill="none" xmlns="http://www.w3.org/2000/svg">
<path d="M118.981 38.7595C118.981 17.3775 92.3317 0.0533471 59.4904 0.0533471C26.6492 0.0533471 0 17.4555 0 38.7595V41.0226C0 63.6532 23.2789 81.9918 59.4904 81.9918C95.9371 81.9918 118.981 63.6532 118.981 41.0226V38.7595Z" fill="#2D3277"/>
<path d="M116.704 38.7541C116.704 58.8095 91.0736 75.1972 59.4864 75.1972C27.8993 75.1972 2.26904 58.8876 2.26904 38.7541C2.26904 18.6207 27.8993 2.31099 59.4864 2.31099C91.0736 2.31099 116.704 18.6207 116.704 38.7541Z" fill="#F7D032"/>
<path d="M40.4841 27.2184C40.4841 27.2964 39.8571 27.8427 40.249 28.3109C41.1895 29.4814 43.9328 30.1057 46.7545 29.4814C48.4005 29.0913 50.5951 27.3745 52.633 25.7357C54.906 23.9408 57.1007 22.146 59.3737 21.4437C61.7251 20.6633 63.2927 20.9755 64.3116 21.2876C65.409 21.5997 66.7414 22.3021 68.7793 23.8628C72.6983 26.8282 88.4527 40.4846 91.1176 42.8257C93.3122 41.8112 103.031 37.6753 116.278 34.7879C115.102 27.7646 110.869 21.3656 104.364 16.0591C95.2717 19.8829 84.2202 21.8339 73.4037 16.5274C73.3253 16.5274 67.4468 13.718 61.7251 13.8741C53.1033 14.1082 49.4194 17.776 45.5004 21.6778L40.4841 27.2184Z" fill="white"/>
<path d="M90.5791 44.4768C90.4223 44.3207 72.0814 28.3232 67.9273 25.2798C65.4975 23.4849 64.165 23.0167 62.7542 22.8606C62.0488 22.7826 61.0298 22.9387 60.3244 23.0947C58.3649 23.641 55.8567 25.2798 53.6621 27.0746C51.3107 28.9475 49.116 30.6643 47.1565 31.1325C44.57 31.6788 41.3564 31.0545 39.9456 30.04C39.3969 29.6498 38.9267 29.1816 38.7699 28.7134C38.2212 27.4648 39.2402 26.5283 39.3969 26.2942L44.4132 20.8317C45.0403 20.2074 45.589 19.6611 46.216 19.1149C44.57 19.349 43.0808 19.7392 41.5916 20.1293C39.7888 20.6756 37.9861 21.1438 36.1834 21.1438C35.3996 21.1438 31.4806 20.5195 30.6968 20.2854C26.1507 19.0368 22.0749 17.7882 16.1181 15.057C8.90711 20.3634 4.12593 27.0746 2.71509 34.41C3.73403 34.7222 5.38001 35.1904 6.08543 35.3465C22.3885 38.9362 27.4048 42.6819 28.3454 43.4623C29.3643 42.3698 30.7751 41.6674 32.3427 41.6674C34.1455 41.6674 35.7915 42.6039 36.732 43.9305C37.6726 43.2282 38.9267 42.6039 40.5726 42.6039C41.3564 42.6039 42.1402 42.76 42.924 42.9941C44.7268 43.6184 45.7457 44.8669 46.216 45.9595C46.843 45.6473 47.6268 45.4912 48.489 45.4912C49.3512 45.4912 50.2918 45.7254 51.1539 46.1155C54.1324 47.3641 54.6027 50.3295 54.3675 52.5145H54.9945C58.5217 52.5145 61.4217 55.4019 61.4217 58.9135C61.4217 60.0061 61.1082 61.0205 60.6379 61.957C61.5785 62.5032 64.0866 63.7518 66.2029 63.4397C67.9273 63.2056 68.5543 62.6593 68.7894 62.2691C68.9462 62.035 69.103 61.8009 68.9462 61.5668L64.3218 56.4944C64.3218 56.4944 63.538 55.7921 63.8515 55.4799C64.0866 55.1678 64.5569 55.636 64.8704 55.8701C67.2218 57.821 70.0435 60.7084 70.0435 60.7084C70.1219 60.7084 70.2787 61.0986 71.2976 61.3327C72.2382 61.4888 73.8058 61.4107 74.9031 60.4743C75.2166 60.2402 75.4517 59.928 75.6869 59.6939L75.6085 59.7719C76.7842 58.2893 75.4517 56.7285 75.4517 56.7285L70.1219 50.7197C70.1219 50.7197 69.3381 50.0174 69.6516 49.7052C69.8868 49.4711 70.357 49.8613 70.7489 50.0954C72.7868 51.422 75.1382 53.8412 77.4896 56.1042C77.9599 56.4164 79.9978 57.665 82.6627 55.9482C84.3087 54.8556 84.6222 53.6071 84.5438 52.5926C84.4654 51.266 83.4465 50.3295 83.4465 50.3295L76.1572 42.9941C76.1572 42.9941 75.3734 42.3698 75.6869 41.9796C75.922 41.6674 76.3923 42.1357 76.7058 42.3698C79.0572 44.3207 85.3276 50.0954 85.3276 50.0954C85.406 50.1734 87.6006 51.7342 90.2656 50.0174C91.2061 49.3931 91.8332 48.4566 91.9115 47.4422C91.9115 45.5693 90.5791 44.4768 90.5791 44.4768Z" fill="white"/>
<path d="M55.1099 53.7617C54.0126 53.7617 52.7585 54.386 52.6017 54.308C52.5234 54.2299 52.6801 53.7617 52.7585 53.5276C52.8369 53.2935 54.3261 48.7674 50.7206 47.2066C47.8989 46.0361 46.253 47.3627 45.6259 47.987C45.4692 48.1431 45.3908 48.1431 45.3908 47.909C45.3124 47.1286 44.9989 44.9436 42.5691 44.1632C39.1204 43.1487 36.9257 45.4898 36.3771 46.3482C36.1419 44.3973 34.496 42.9146 32.4581 42.9146C30.2634 42.9146 28.4607 44.7095 28.4607 46.8945C28.4607 49.0795 30.2634 50.8744 32.4581 50.8744C33.5554 50.8744 34.496 50.4842 35.2014 49.7819V49.9379C35.0446 50.8744 34.7311 54.4641 38.4933 55.9467C39.9826 56.493 41.315 56.1028 42.334 55.3225C42.6475 55.0883 42.7259 55.1664 42.6475 55.4785C42.4907 56.415 42.6475 58.3659 45.4692 59.4584C47.5854 60.3168 48.8395 59.4584 49.6233 58.678C50.0152 58.3659 50.0936 58.4439 50.0936 58.9121C50.172 61.6434 52.445 63.7504 55.1099 63.7504C57.8532 63.7504 60.1262 61.4873 60.1262 58.7561C60.1262 55.9467 57.8532 53.7617 55.1099 53.7617Z" fill="white"/>
<path d="M55.1099 63.3788C52.6017 63.3788 50.5638 61.4279 50.4854 58.9308C50.4854 58.6966 50.4854 58.1504 50.0152 58.1504C49.78 58.1504 49.6233 58.3065 49.4665 58.4625C48.9178 59.0088 48.2124 59.477 47.1935 59.477C46.7232 59.477 46.2529 59.399 45.7043 59.1649C43.0393 58.0724 43.0393 56.2775 43.1177 55.5752C43.1177 55.3411 43.1177 55.185 43.0393 55.0289L42.8826 54.8729H42.5691C42.4123 54.8729 42.2555 54.9509 42.0988 55.0289C41.315 55.5752 40.6096 55.8093 39.8258 55.8093C39.4339 55.8093 38.9636 55.7313 38.5717 55.5752C35.0446 54.2486 35.3581 50.971 35.5149 49.9565C35.5149 49.7224 35.5149 49.5664 35.3581 49.4883L35.123 49.2542L34.8878 49.4883C34.1824 50.1126 33.3202 50.5028 32.3797 50.5028C30.3418 50.5028 28.7742 48.864 28.7742 46.9131C28.7742 44.8842 30.4202 43.3234 32.3797 43.3234C34.1824 43.3234 35.75 44.6501 35.9851 46.4449L36.1419 47.3813L36.6906 46.5229C36.7689 46.4449 38.1798 44.1818 40.9231 44.2599C41.4717 44.2599 41.942 44.3379 42.4907 44.494C44.6069 45.1183 44.9988 47.0692 45.0772 47.9276C45.1556 48.3958 45.4691 48.3958 45.5475 48.3958C45.7043 48.3958 45.861 48.2397 45.9394 48.1617C46.3313 47.7715 47.1935 47.0692 48.6043 47.0692C49.2314 47.0692 49.9368 47.2253 50.6422 47.5374C54.0909 49.0201 52.5233 53.3121 52.5233 53.3902C52.2098 54.0925 52.2098 54.4046 52.5233 54.6387L52.6801 54.7168H52.7585C52.9152 54.7168 53.072 54.6387 53.3855 54.5607C53.8558 54.4046 54.5612 54.1705 55.1882 54.1705C57.7748 54.1705 59.891 56.2775 59.891 58.8527C59.8127 61.2719 57.6964 63.3788 55.1099 63.3788ZM91.3214 42.5431C85.6781 37.6268 72.667 26.3114 69.1399 23.7362C67.102 22.2535 65.7695 21.3951 64.5155 21.083C63.9668 20.9269 63.183 20.7708 62.2424 20.7708C61.3803 20.7708 60.3613 20.9269 59.3424 21.2391C57.0694 21.9414 54.7963 23.7362 52.6017 25.5311L52.5233 25.6091C50.4854 27.2479 48.3692 28.8866 46.7232 29.2768C46.0178 29.4329 45.3124 29.5109 44.6069 29.5109C42.8042 29.5109 41.2366 28.9647 40.6096 28.2624C40.5312 28.1063 40.6096 27.9502 40.8447 27.6381V27.56L45.7826 22.2535C49.7016 18.3517 53.3071 14.762 61.7722 14.5279H62.1641C67.4155 14.5279 72.667 16.869 73.294 17.1812C78.232 19.6003 83.3267 20.7708 88.4214 20.7708C93.7512 20.7708 99.2378 19.4442 105.038 16.791C104.411 16.2447 103.705 15.6985 103 15.2302C97.9053 17.4153 93.0458 18.5078 88.4214 18.5078C83.6402 18.5078 78.859 17.3372 74.2346 15.1522C73.9994 14.9961 68.1993 12.3429 62.1641 12.3429H61.6938C54.5612 12.4989 50.5638 14.9961 47.8989 17.1812C45.3124 17.2592 43.0393 17.8835 41.0015 18.4297C39.1987 18.898 37.6311 19.3662 36.1419 19.3662C35.5149 19.3662 34.4175 19.2881 34.3392 19.2881C32.6148 19.2101 23.8362 17.1031 16.9388 14.4499C16.2334 14.9181 15.528 15.4643 14.9009 16.0106C22.1903 18.976 31.0472 21.2391 33.7905 21.4732C34.5743 21.5512 35.3581 21.6292 36.2203 21.6292C38.1014 21.6292 39.9041 21.083 41.7069 20.6148C42.7258 20.3026 43.9015 19.9905 45.1556 19.7564C44.8421 20.0685 44.5286 20.3807 44.1367 20.6928L39.1203 26.1554C38.7284 26.5455 37.8663 27.6381 38.4149 28.9647C38.6501 29.5109 39.1203 29.9792 39.7474 30.4474C40.9231 31.2277 43.1177 31.774 45.0772 31.774C45.861 31.774 46.5664 31.696 47.1935 31.5399C49.3097 31.0717 51.5044 29.2768 53.8558 27.482C55.7369 25.9993 58.4018 24.1264 60.4397 23.5802C60.9884 23.4241 61.6938 23.346 62.2424 23.346H62.7127C64.0452 23.5021 65.3776 23.9703 67.6507 25.6871C71.8048 28.8086 90.1457 44.7281 90.3025 44.8842C90.3025 44.8842 91.4782 45.8986 91.3998 47.5374C91.3214 48.4738 90.8511 49.3323 89.9106 49.8785C89.1268 50.3467 88.343 50.6589 87.4808 50.6589C86.2267 50.6589 85.4429 50.1126 85.3645 50.0346C85.2862 49.9565 79.0158 44.2599 76.7427 42.309C76.3508 41.9968 76.0373 41.7627 75.6454 41.7627C75.4887 41.7627 75.2535 41.8407 75.1751 41.9968C74.7832 42.465 75.2535 43.0893 75.7238 43.4795L83.0915 50.8149C83.0915 50.8149 84.0321 51.6734 84.1105 52.7659C84.1888 54.0144 83.5618 55.0289 82.3861 55.8093C81.5239 56.3555 80.6617 56.6677 79.7996 56.6677C78.7022 56.6677 77.9184 56.1214 77.6833 56.0434L76.6644 55.0289C74.7049 53.156 72.7454 51.2051 71.3345 49.9565C70.9426 49.6444 70.6291 49.4103 70.2372 49.4103C70.0804 49.4103 69.9237 49.4883 69.7669 49.5664C69.6102 49.7224 69.4534 50.1126 69.9237 50.6589C70.0804 50.893 70.3156 51.0491 70.3156 51.0491L75.6454 57.0579C75.7238 57.1359 76.7427 58.3845 75.8022 59.6331H75.4887L75.0184 60.1013C74.0778 60.8817 72.9021 60.9597 72.4318 60.9597C72.1967 60.9597 71.9616 60.9597 71.7264 60.8817C71.1778 60.8036 70.8642 60.6476 70.7075 60.4135L70.6291 60.3354C70.3156 60.0233 67.6507 57.292 65.3776 55.4191C65.0641 55.185 64.7506 54.8729 64.3587 54.8729C64.2019 54.8729 64.0452 54.9509 63.8884 55.107C63.4181 55.5752 64.1236 56.2775 64.3587 56.5897L68.9047 61.584C68.9047 61.662 68.8264 61.7401 68.748 61.8962C68.5912 62.1303 68.0426 62.6765 66.3966 62.9106H65.7695C64.0452 62.9106 62.2424 62.0522 61.3019 61.584C61.6938 60.6476 61.9289 59.7111 61.9289 58.6966C61.9289 54.9509 58.8721 51.9075 55.1099 51.9075H54.8747C55.0315 50.1907 54.718 46.9912 51.426 45.5085C50.4854 45.1183 49.5449 44.8842 48.6043 44.8842C47.8989 44.8842 47.1935 45.0402 46.4881 45.2743C45.7826 43.9477 44.6853 42.9332 43.1177 42.465C42.2555 42.1529 41.4717 42.0748 40.6879 42.0748C39.2771 42.0748 38.023 42.465 36.8473 43.3234C35.75 41.9968 34.104 41.1384 32.3797 41.1384C30.8904 41.1384 29.4012 41.7627 28.3039 42.7772C26.8931 41.6847 21.2497 38.095 6.12236 34.7394C5.41694 34.5833 3.69258 34.1151 2.67364 33.803C2.51688 34.5833 2.36012 35.4417 2.28174 36.3001C2.28174 36.3001 5.02504 37.0025 5.5737 37.0805C21.0146 40.5141 26.1093 44.0258 26.9714 44.7281C26.6579 45.4304 26.5012 46.2108 26.5012 46.9131C26.5012 50.1126 29.0877 52.6878 32.3013 52.6878C32.6932 52.6878 33.0067 52.6878 33.3202 52.6098C33.7905 54.9509 35.3581 56.7457 37.7095 57.6041C38.4149 57.8382 39.1203 57.9943 39.7474 57.9943C40.2177 57.9943 40.6096 57.9163 41.0798 57.8382C41.5501 58.9308 42.4907 60.3354 44.6853 61.1938C45.4691 61.506 46.1745 61.662 46.9583 61.662C47.5854 61.662 48.134 61.584 48.6827 61.3499C49.7016 63.8471 52.2098 65.5639 54.9531 65.5639C56.7558 65.5639 58.5586 64.8615 59.8127 63.5349C60.91 64.1592 63.2614 65.2517 65.6128 65.2517C65.9263 65.2517 66.2398 65.2517 66.475 65.1737C68.8264 64.8615 69.9237 64.0031 70.394 63.3008C70.4723 63.1447 70.5507 63.0667 70.6291 62.9106C71.1778 63.0667 71.8048 63.2228 72.5102 63.2228C73.7643 63.2228 75.0184 62.7546 76.2725 61.8962C77.4482 61.0377 78.3103 59.7892 78.4671 58.6966V58.6186C78.9374 58.6186 79.4077 58.6966 79.7996 58.6966C81.132 58.6966 82.3861 58.3065 83.6402 57.5261C85.9916 55.9654 86.4619 53.9364 86.3835 52.6098C86.7754 52.6878 87.2457 52.7659 87.6376 52.7659C88.8916 52.7659 90.0673 52.3757 91.243 51.6734C92.7323 50.7369 93.5944 49.3323 93.7512 47.6154C93.8296 46.4449 93.5944 45.3524 92.9674 44.3379C96.9648 42.6211 106.057 39.3436 116.717 36.9244C116.638 36.066 116.56 35.2857 116.403 34.5053C103.392 37.3146 93.7512 41.4505 91.3214 42.5431Z" fill="#2D3277"/>
<path d="M315.346 28.9188C314.336 30.3104 312.861 30.9289 310.92 30.9289C308.978 30.9289 307.503 30.2331 306.494 28.9188C305.484 27.5273 304.941 25.5945 304.941 23.1206C304.941 20.6467 305.484 18.6367 306.494 17.3224C307.503 15.9308 309.056 15.3123 310.92 15.3123C312.861 15.3123 314.336 16.0081 315.346 17.3224C316.355 18.714 316.899 20.6467 316.899 23.1206C316.899 25.6718 316.433 27.6046 315.346 28.9188ZM320.626 13.6888C318.529 11.0603 315.268 9.74605 310.92 9.74605C306.571 9.74605 303.388 11.0603 301.213 13.6888C299.117 16.3174 298.03 19.4871 298.03 23.1206C298.03 26.8315 299.117 29.9239 301.213 32.5524C303.31 35.1809 306.571 36.4952 310.92 36.4952C315.268 36.4952 318.452 35.1809 320.626 32.5524C322.722 29.9239 323.81 26.7542 323.81 23.1206C323.81 19.4871 322.8 16.3947 320.626 13.6888Z" fill="#2D3277"/>
<path d="M262.916 25.8175C262.839 28.0595 262.217 29.5284 261.053 30.3788C259.81 31.2292 258.49 31.6157 257.093 31.6157C256.161 31.6157 255.384 31.3838 254.763 30.8426C254.142 30.3788 253.831 29.5284 253.831 28.3687C253.831 27.1318 254.375 26.2041 255.384 25.5856C256.005 25.199 257.015 24.9671 258.413 24.6579L259.888 24.3486C260.664 24.194 261.208 24.0394 261.674 23.8848C262.14 23.7302 262.528 23.4982 262.916 23.2663V25.8175ZM266.255 11.5152C264.081 10.4329 261.596 9.89173 258.878 9.89173C254.608 9.89173 251.579 10.9741 249.871 13.216C248.784 14.6076 248.163 16.463 248.007 18.6277H254.375C254.53 17.6227 254.841 16.8496 255.307 16.3084C255.928 15.5353 257.093 15.1488 258.645 15.1488C260.043 15.1488 261.13 15.3034 261.829 15.7673C262.528 16.1538 262.916 16.8496 262.916 17.9319C262.916 18.7823 262.45 19.4008 261.519 19.7874C260.975 20.0193 260.121 20.1739 258.878 20.3285L256.627 20.6378C254.064 20.947 252.123 21.4882 250.803 22.2613C248.396 23.6528 247.153 25.8948 247.153 28.9872C247.153 31.3838 247.93 33.2392 249.405 34.5535C250.881 35.8678 252.822 36.4089 255.074 36.4863C269.516 37.1047 269.361 28.9099 269.516 27.2091V17.7773C269.516 14.6849 268.429 12.5976 266.255 11.5152Z" fill="#2D3277"/>
<path d="M233.372 15.5274C235.003 15.5274 236.245 16.0686 237.022 17.0736C237.565 17.8467 237.876 18.6971 238.031 19.6248H245.175C244.787 16.0686 243.544 13.5173 241.37 12.1258C239.274 10.7342 236.556 10.0384 233.217 10.0384C229.257 10.0384 226.228 11.1981 223.977 13.5947C221.725 15.9913 220.638 19.3156 220.638 23.6449C220.638 27.4331 221.647 30.6028 223.666 32.9221C225.685 35.3187 228.869 36.4783 233.139 36.4783C237.41 36.4783 240.671 35.0094 242.846 32.149C244.243 30.3709 244.942 28.5154 245.175 26.5054H238.109C237.954 27.8196 237.565 28.902 236.867 29.7524C236.168 30.6028 235.003 30.9893 233.372 30.9893C231.043 30.9893 229.49 29.9843 228.713 27.8196C228.247 26.7373 228.014 25.1911 228.014 23.413C228.014 21.4802 228.247 19.934 228.713 18.7744C229.412 16.6097 231.043 15.5274 233.372 15.5274Z" fill="#2D3277"/>
<path d="M218.669 9.96937C204.071 9.96937 204.925 22.8801 204.925 22.8801V35.9454H211.525V23.6532C211.525 21.6431 211.758 20.1742 212.301 19.1692C213.233 17.4684 215.019 16.618 217.659 16.618H218.436C218.746 16.618 219.135 16.6953 219.523 16.6953V9.96937H218.669Z" fill="#2D3277"/>
<path d="M185.37 16.8134C186.302 15.8857 187.622 15.3446 189.33 15.3446C190.883 15.3446 192.203 15.8084 193.213 16.7361C194.222 17.6639 194.843 18.9781 194.999 20.6789H183.662C183.895 19.0554 184.438 17.7412 185.37 16.8134ZM194.3 29.1057C193.989 29.4922 193.756 29.8788 193.368 30.1107C192.436 30.8838 191.194 31.1157 189.641 31.1157C188.243 31.1157 187.078 30.8838 186.069 30.2653C184.438 29.2603 183.507 27.5595 183.351 25.0083H201.677C201.677 22.8436 201.599 21.1428 201.444 20.0604C201.133 18.1277 200.434 16.3496 199.425 14.8807C198.26 13.1799 196.785 11.9429 195.076 11.1698C193.29 10.3967 191.349 10.0102 189.175 10.0102C185.448 10.0102 182.497 11.1698 180.168 13.4891C177.838 15.8084 176.673 19.1327 176.673 23.4621C176.673 28.1007 177.993 31.425 180.556 33.5123C183.118 35.5997 186.069 36.6047 189.408 36.6047C193.446 36.6047 196.629 35.3678 198.881 32.9712C200.124 31.6569 200.822 30.4199 201.211 29.183L194.3 29.1057Z" fill="#2D3277"/>
<path d="M174.185 35.9563H168.128V20.7262C168.128 19.3347 167.662 16.0104 163.702 16.0104C161.062 16.0104 159.121 17.9431 159.121 20.7262V35.9563H153.064V20.7262C153.064 19.3347 152.676 16.0104 148.638 16.0104C145.92 16.0104 144.057 17.9431 144.057 20.7262V35.9563H138V20.8809C138 14.6188 142.193 9.90289 148.638 9.90289C151.822 9.90289 154.462 11.2172 156.17 13.3818C157.956 11.2172 160.596 9.90289 163.702 9.90289C170.302 9.90289 174.185 14.4642 174.185 20.8809V35.9563Z" fill="#2D3277"/>
<path d="M288.154 29.0109C287.222 30.4024 285.747 31.0982 283.883 31.0982C282.019 31.0982 280.622 30.4024 279.69 29.0109C278.758 27.6193 278.292 25.6092 278.292 23.2899C278.292 21.1253 278.758 19.3472 279.612 17.8783C280.544 16.4094 281.942 15.7136 283.883 15.7136C285.125 15.7136 286.29 16.1001 287.222 16.8732C288.775 18.1875 289.551 20.5841 289.551 23.5992C289.629 25.8412 289.085 27.6193 288.154 29.0109ZM296.074 2.02979C296.074 2.02979 289.396 1.334 289.396 6.66837V13.7809C288.62 12.6212 287.688 11.6935 286.523 10.9977C285.358 10.3019 283.961 9.99268 282.485 9.99268C279.146 9.99268 276.506 11.2296 274.565 13.7035C272.546 16.1775 271.614 19.7337 271.614 23.9857C271.614 27.6966 272.624 30.7117 274.643 33.1083C276.661 35.5049 280.622 36.5099 284.116 36.5099C296.307 36.5099 296.229 26.0731 296.229 26.0731L296.074 2.02979Z" fill="#2D3277"/>
<path d="M206.978 55.8989C207.948 54.9712 209.321 54.5073 211.017 54.5073C212.632 54.5073 213.925 54.9712 215.056 55.8216C216.106 56.7493 216.752 58.0636 216.833 59.7644H205.12C205.443 58.1409 206.009 56.8266 206.978 55.8989ZM216.187 68.1138C215.863 68.5004 215.621 68.8096 215.217 69.1189C214.248 69.892 212.875 70.1239 211.34 70.1239C209.886 70.1239 208.755 69.892 207.705 69.2735C206.009 68.2685 205.12 66.4903 204.959 64.0164H223.86C223.86 61.8517 223.779 60.2282 223.618 59.0686C223.295 57.1359 222.649 55.435 221.518 53.8889C220.306 52.188 218.852 50.9511 216.994 50.178C215.217 49.4049 213.117 49.0183 210.855 49.0183C207.059 49.0183 203.909 50.178 201.566 52.4973C199.224 54.8166 198.012 58.0636 198.012 62.3929C198.012 67.0315 199.305 70.2785 201.97 72.3659C204.636 74.3759 207.705 75.4583 211.098 75.4583C215.298 75.4583 218.529 74.2213 220.871 71.8247C222.164 70.5877 222.891 69.2735 223.214 68.0365H216.187V68.1138Z" fill="#2D3277"/>
<path d="M197.827 49.1554H197.495C181.897 49.1554 182.81 62.0661 182.81 62.0661V74.8995H189.862V62.8392C189.862 60.8291 190.111 59.3602 190.692 58.3552C191.687 56.6544 193.595 55.804 196.416 55.804H197.246C197.578 55.804 197.993 55.8813 198.407 55.8813V49.1554H197.827Z" fill="#2D3277"/>
<path d="M138 45.7516V74.8201H145.212V41.0358C145.302 41.0358 138 40.8038 138 45.7516Z" fill="#2D3277"/>
<path d="M157.02 47.5677H149.358V41H157.02V47.5677Z" fill="#2D3277"/>
<path d="M149.345 74.8968H157.02V49.8H149.345V74.8968Z" fill="#2D3277"/>
<path d="M174.522 74.8337H167.573L158.442 49.7944H165.714L170.967 67.4147L175.573 52.0356C176.138 50.49 177.189 49.7944 178.724 49.7944H183.815L174.522 74.8337Z" fill="#2D3277"/>
</svg>
